<svg width="327mm" height="327mm" viewBox="0 0 327 327" xmlns="http://www.w3.org/2000/svg">
  <circle cx="163.5" cy="163.5" r="163.5" fill="none" stroke="black" stroke-width="1" />
  <circle cx="163.5" cy="163.5" r="4.25" fill="none" stroke="red" stroke-width="1" />
  <circle cx="274.61" cy="185.00" r="20.5" fill="none" stroke="blue" stroke-width="1" />
  <circle cx="274.61" cy="185.00" r="7.75" fill="none" stroke="purple" stroke-width="1" />
  <circle cx="187.85" cy="235.83" r="20.5" fill="none" stroke="blue" stroke-width="1" />
  <circle cx="187.85" cy="235.83" r="7.75" fill="none" stroke="purple" stroke-width="1" />
  <circle cx="196.05" cy="132.12" r="20.5" fill="none" stroke="blue" stroke-width="1" />
  <circle cx="196.05" cy="132.12" r="7.75" fill="none" stroke="purple" stroke-width="1" />
  <circle cx="217.61" cy="173.08" r="20.5" fill="none" stroke="blue" stroke-width="1" />
  <circle cx="217.61" cy="173.08" r="7.75" fill="none" stroke="purple" stroke-width="1" />
  <circle cx="214.45" cy="284.62" r="20.5" fill="none" stroke="blue" stroke-width="1" />
  <circle cx="214.45" cy="284.62" r="7.75" fill="none" stroke="purple" stroke-width="1" />
  <circle cx="247.39" cy="55.20" r="20.5" fill="none" stroke="blue" stroke-width="1" />
  <circle cx="247.39" cy="55.20" r="7.75" fill="none" stroke="purple" stroke-width="1" />
  <circle cx="73.94" cy="118.37" r="20.5" fill="none" stroke="blue" stroke-width="1" />
  <circle cx="73.94" cy="118.37" r="7.75" fill="none" stroke="purple" stroke-width="1" />
  <circle cx="168.87" cy="93.81" r="20.5" fill="none" stroke="blue" stroke-width="1" />
  <circle cx="168.87" cy="93.81" r="7.75" fill="none" stroke="purple" stroke-width="1" />
  <circle cx="128.17" cy="151.21" r="20.5" fill="none" stroke="blue" stroke-width="1" />
  <circle cx="128.17" cy="151.21" r="7.75" fill="none" stroke="purple" stroke-width="1" />
  <circle cx="260.61" cy="138.75" r="20.5" fill="none" stroke="blue" stroke-width="1" />
  <circle cx="260.61" cy="138.75" r="7.75" fill="none" stroke="purple" stroke-width="1" />
  <circle cx="243.89" cy="235.41" r="20.5" fill="none" stroke="blue" stroke-width="1" />
  <circle cx="243.89" cy="235.41" r="7.75" fill="none" stroke="purple" stroke-width="1" />
  <circle cx="159.30" cy="50.02" r="20.5" fill="none" stroke="blue" stroke-width="1" />
  <circle cx="159.30" cy="50.02" r="7.75" fill="none" stroke="purple" stroke-width="1" />
  <circle cx="143.43" cy="217.55" r="15.0" fill="none" stroke="green" stroke-width="1" />
  <circle cx="143.43" cy="217.55" r="7.75" fill="none" stroke="purple" stroke-width="1" />
  <circle cx="127.12" cy="88.99" r="15.0" fill="none" stroke="green" stroke-width="1" />
  <circle cx="127.12" cy="88.99" r="7.75" fill="none" stroke="purple" stroke-width="1" />
  <circle cx="292.76" cy="113.61" r="15.0" fill="none" stroke="green" stroke-width="1" />
  <circle cx="292.76" cy="113.61" r="7.75" fill="none" stroke="purple" stroke-width="1" />
  <circle cx="20.63" cy="155.60" r="15.0" fill="none" stroke="green" stroke-width="1" />
  <circle cx="20.63" cy="155.60" r="7.75" fill="none" stroke="purple" stroke-width="1" />
  <circle cx="168.25" cy="306.10" r="15.0" fill="none" stroke="green" stroke-width="1" />
  <circle cx="168.25" cy="306.10" r="7.75" fill="none" stroke="purple" stroke-width="1" />
  <circle cx="261.14" cy="97.93" r="15.0" fill="none" stroke="green" stroke-width="1" />
  <circle cx="261.14" cy="97.93" r="7.75" fill="none" stroke="purple" stroke-width="1" />
  <circle cx="107.89" cy="52.08" r="15.0" fill="none" stroke="green" stroke-width="1" />
  <circle cx="107.89" cy="52.08" r="7.75" fill="none" stroke="purple" stroke-width="1" />
  <circle cx="105.79" cy="235.81" r="15.0" fill="none" stroke="green" stroke-width="1" />
  <circle cx="105.79" cy="235.81" r="7.75" fill="none" stroke="purple" stroke-width="1" />
  <circle cx="72.62" cy="210.95" r="15.0" fill="none" stroke="green" stroke-width="1" />
  <circle cx="72.62" cy="210.95" r="7.75" fill="none" stroke="purple" stroke-width="1" />
  <circle cx="26.00" cy="194.94" r="15.0" fill="none" stroke="green" stroke-width="1" />
  <circle cx="26.00" cy="194.94" r="7.75" fill="none" stroke="purple" stroke-width="1" />
  <circle cx="307.95" cy="165.40" r="15.0" fill="none" stroke="green" stroke-width="1" />
  <circle cx="307.95" cy="165.40" r="7.75" fill="none" stroke="purple" stroke-width="1" />
  <circle cx="218.38" cy="85.86" r="15.0" fill="none" stroke="green" stroke-width="1" />
  <circle cx="218.38" cy="85.86" r="7.75" fill="none" stroke="purple" stroke-width="1" />
  <circle cx="55.79" cy="170.03" r="17.0" fill="none" stroke="orange" stroke-width="1" />
  <circle cx="55.79" cy="170.03" r="7.75" fill="none" stroke="purple" stroke-width="1" />
  <circle cx="69.97" cy="255.01" r="17.0" fill="none" stroke="orange" stroke-width="1" />
  <circle cx="69.97" cy="255.01" r="7.75" fill="none" stroke="purple" stroke-width="1" />
  <circle cx="66.59" cy="62.34" r="17.0" fill="none" stroke="orange" stroke-width="1" />
  <circle cx="66.59" cy="62.34" r="7.75" fill="none" stroke="purple" stroke-width="1" />
  <circle cx="295.37" cy="220.47" r="17.0" fill="none" stroke="orange" stroke-width="1" />
  <circle cx="295.37" cy="220.47" r="7.75" fill="none" stroke="purple" stroke-width="1" />
  <circle cx="206.99" cy="46.98" r="17.0" fill="none" stroke="orange" stroke-width="1" />
  <circle cx="206.99" cy="46.98" r="7.75" fill="none" stroke="purple" stroke-width="1" />
  <circle cx="178.12" cy="191.07" r="17.0" fill="none" stroke="orange" stroke-width="1" />
  <circle cx="178.12" cy="191.07" r="7.75" fill="none" stroke="purple" stroke-width="1" />
  <circle cx="102.17" cy="289.12" r="17.0" fill="none" stroke="orange" stroke-width="1" />
  <circle cx="102.17" cy="289.12" r="7.75" fill="none" stroke="purple" stroke-width="1" />
  <circle cx="144.27" cy="254.31" r="17.0" fill="none" stroke="orange" stroke-width="1" />
  <circle cx="144.27" cy="254.31" r="7.75" fill="none" stroke="purple" stroke-width="1" />
  <circle cx="99.25" cy="183.40" r="17.0" fill="none" stroke="orange" stroke-width="1" />
  <circle cx="99.25" cy="183.40" r="7.75" fill="none" stroke="purple" stroke-width="1" />
  <circle cx="33.37" cy="117.63" r="17.0" fill="none" stroke="orange" stroke-width="1" />
  <circle cx="33.37" cy="117.63" r="7.75" fill="none" stroke="purple" stroke-width="1" />
  <circle cx="40.69" cy="228.38" r="17.0" fill="none" stroke="orange" stroke-width="1" />
  <circle cx="40.69" cy="228.38" r="7.75" fill="none" stroke="purple" stroke-width="1" />
  <circle cx="254.40" cy="274.78" r="17.0" fill="none" stroke="orange" stroke-width="1" />
  <circle cx="254.40" cy="274.78" r="7.75" fill="none" stroke="purple" stroke-width="1" />
</svg>